<?xml version="1.0" encoding="UTF-8"?>
<svg width="96px" height="20px" viewBox="0 0 96 20" version="1.1" xmlns="http://www.w3.org/2000/svg" xmlns:xlink="http://www.w3.org/1999/xlink" xmlns:sketch="http://www.bohemiancoding.com/sketch/ns">
    <!-- Generator: Sketch 3.5.1 (25234) - http://www.bohemiancoding.com/sketch -->
    <title>Artboard 2 Copy</title>
    <desc>Created with Sketch.</desc>
    <defs></defs>
    <g id="Page-1-Copy" stroke="none" stroke-width="1" fill="none" fill-rule="evenodd" sketch:type="MSPage">
        <g id="Artboard-2-Copy" sketch:type="MSArtboardGroup">
            <g id="SocialHub-Horizontal-Logo-Color-for-Black-Background-RGB" sketch:type="MSLayerGroup" transform="translate(-41.000000, -7.000000)">
                <path d="M48.2366282,23.7555 C45.9058357,23.7555 44.0967579,23.21625 43.6929251,23.105625 C43.5194092,23.049 43.4415994,22.91925 43.4415994,22.7895 L43.4415994,22.69575 L43.6742507,21.7875 C43.6929251,21.676875 43.867219,21.602625 43.9827666,21.602625 L44.0205043,21.602625 C44.4247262,21.676875 46.3886455,22.196625 48.4295965,22.196625 C50.1231268,22.196625 51.8765706,21.65775 51.8765706,19.74525 C51.8765706,17.91 50.2775793,17.667375 48.1802161,17.407875 C45.9840346,17.1105 43.2692507,16.62975 43.2692507,13.511625 C43.2692507,10.395 45.8883285,9.63225 48.6023343,9.63225 C50.8545389,9.63225 52.625879,10.15275 53.0491643,10.28175 C53.2417435,10.31925 53.3187752,10.4505 53.3187752,10.597125 L53.3187752,10.6725 L53.0880692,11.599125 C53.0693948,11.69325 52.8947118,11.78475 52.7993948,11.78475 L52.7604899,11.78475 C52.2411095,11.673375 50.6051585,11.209875 48.6023343,11.209875 C47.0243516,11.209875 45.1763689,11.544375 45.1763689,13.3635 C45.1763689,15.162 47.0430259,15.497625 48.870389,15.73875 C51.1432133,16.035375 53.8385447,16.23825 53.8385447,19.616625 C53.8385447,22.88175 51.0276657,23.7555 48.2366282,23.7555" id="Fill-3" fill="#FFFFFF" sketch:type="MSShapeGroup"></path>
                <path d="M60.3403314,23.7915 C56.2580403,23.7915 55.7592795,21.49125 55.7592795,18.688875 C55.7592795,15.867375 56.2580403,13.567125 60.3403314,13.567125 C64.4409078,13.567125 64.9221614,15.867375 64.9221614,18.688875 C64.9221614,21.49125 64.4409078,23.7915 60.3403314,23.7915 M60.3403314,14.88375 C57.7407061,14.88375 57.6255476,16.35 57.6255476,18.688875 C57.6255476,21.00825 57.7407061,22.474875 60.3403314,22.474875 C62.9582421,22.474875 63.0737896,21.00825 63.0737896,18.688875 C63.0737896,16.35 62.9582421,14.88375 60.3403314,14.88375" id="Fill-4" fill="#FFFFFF" sketch:type="MSShapeGroup"></path>
                <path d="M74.4464697,23.049 C74.4464697,23.19825 74.3309222,23.253375 74.2546686,23.290875 C73.7730259,23.514 72.4062968,23.77275 71.2115274,23.77275 C67.5743084,23.77275 66.6110231,22.14075 66.6110231,18.669375 C66.6110231,15.217875 67.5743084,13.5675 71.2115274,13.5675 C72.4062968,13.5675 73.7730259,13.845 74.2546686,14.050125 C74.3309222,14.08575 74.4464697,14.142 74.4464697,14.309625 C74.4464697,14.327625 74.4464697,14.3655 74.4277954,14.402625 L74.273732,15.126375 C74.2546686,15.273 74.1581844,15.3285 74.0426369,15.3285 L73.9270893,15.3285 C73.503415,15.217875 72.4062968,14.902875 71.4052738,14.902875 C69.1522911,14.902875 68.4593948,15.831375 68.4593948,18.669375 C68.4593948,21.50925 69.1522911,22.437375 71.4052738,22.437375 C72.4062968,22.437375 73.503415,22.17675 73.9270893,22.065 C73.964438,22.047375 74.0045101,22.047375 74.0426369,22.047375 C74.1581844,22.047375 74.2352161,22.102875 74.273732,22.252125 L74.4277954,22.93725 C74.4464697,22.9755 74.4464697,23.012625 74.4464697,23.049" id="Fill-5" fill="#FFFFFF" sketch:type="MSShapeGroup"></path>
                <path d="M77.8899424,12.24975 L76.7531412,12.24975 C76.5617291,12.24975 76.4267291,12.11925 76.4267291,11.934 L76.4267291,9.911625 C76.4267291,9.707625 76.5617291,9.59625 76.7531412,9.59625 L77.8899424,9.59625 C78.0825216,9.59625 78.1988473,9.707625 78.1988473,9.911625 L78.1988473,11.934 C78.1988473,12.138375 78.0825216,12.24975 77.8899424,12.24975 M77.9280692,23.550375 L76.7157925,23.550375 C76.5422767,23.550375 76.4267291,23.440125 76.4267291,23.272125 L76.4267291,14.122875 C76.4267291,13.956375 76.5422767,13.845375 76.7157925,13.845375 L77.9280692,13.845375 C78.1019741,13.845375 78.2175216,13.956375 78.2175216,14.122875 L78.2175216,23.272125 C78.2175216,23.440125 78.1019741,23.550375 77.9280692,23.550375" id="Fill-6" fill="#FFFFFF" sketch:type="MSShapeGroup"></path>
                <path d="M87.2703026,23.53125 C86.6933429,23.66175 85.7685735,23.791875 84.7290346,23.791875 C82.9779251,23.791875 80.2627522,23.69925 80.2627522,20.6925 C80.2627522,18.241875 81.7259654,18.094875 83.5354323,17.797875 L87.1555331,17.223 L87.1555331,16.40625 C87.1555331,15.831 87.1166282,15.385875 86.4813112,15.145125 C86.1342795,15.01425 85.5958357,14.9595 84.7873919,14.9595 C83.3436311,14.9595 82.0344813,15.310875 81.3026801,15.4785 C81.2633862,15.49725 81.206196,15.49725 81.1672911,15.49725 C81.0910375,15.49725 80.9953314,15.45975 80.9751009,15.348375 L80.7829107,14.439375 C80.7630692,14.421 80.7630692,14.401875 80.7630692,14.3835 C80.7630692,14.253375 80.8976801,14.17875 80.9751009,14.161125 C81.571902,13.95675 83.2273055,13.5675 85.0375504,13.5675 C86.423732,13.5675 87.3088184,13.752375 87.8865562,14.050125 C88.8883573,14.58825 88.9264841,15.49725 88.9264841,16.444125 L88.9264841,21.620625 C88.9264841,22.93725 88.5985159,23.235 87.2703026,23.53125 M87.1555331,18.522 L83.882464,19.041 C82.9965994,19.17075 82.1111239,19.24425 82.1111239,20.636625 C82.1111239,22.399125 83.5937896,22.512 84.7675504,22.512 C85.5958357,22.512 86.4427954,22.417875 87.1555331,22.196625 L87.1555331,18.522" id="Fill-7" fill="#FFFFFF" sketch:type="MSShapeGroup"></path>
                <path d="M95.03183,23.2905 C95.03183,23.440125 94.9162824,23.494875 94.8781556,23.494875 C94.7233141,23.56875 94.1852594,23.734875 93.4141643,23.734875 C92.1248559,23.734875 91.315634,23.086125 91.315634,21.694875 L91.315634,10.134 C91.315634,9.9675 91.4125072,9.89175 91.5860231,9.873375 L92.8372046,9.5955 L92.8951729,9.5955 C93.0484582,9.5955 93.1064265,9.707625 93.1064265,9.856125 L93.1064265,21.62025 C93.1064265,22.288875 93.5690058,22.40025 93.9541643,22.40025 C94.2226081,22.40025 94.5128386,22.34325 94.6283862,22.326375 C94.6661239,22.326375 94.6851873,22.307625 94.7042507,22.307625 C94.7812824,22.307625 94.8388617,22.34325 94.8590922,22.47375 L95.03183,23.235375 L95.03183,23.2905" id="Fill-8" fill="#FFFFFF" sketch:type="MSShapeGroup"></path>
                <path d="M109.904395,23.550375 L106.651167,23.550375 C106.458588,23.550375 106.323588,23.440125 106.323588,23.272125 L106.323588,17.872875 L100.951988,17.872875 L100.951988,23.272125 C100.951988,23.440125 100.836441,23.550375 100.645418,23.550375 L97.390634,23.550375 C97.1984438,23.550375 97.065,23.440125 97.065,23.272125 L97.065,10.244625 C97.065,10.0785 97.1984438,9.985125 97.390634,9.96675 L100.645418,9.59625 L100.683545,9.59625 C100.836441,9.59625 100.951988,9.725625 100.951988,9.874125 L100.951988,15.181875 L106.323588,15.181875 L106.323588,10.244625 C106.323588,10.0785 106.47804,9.985125 106.651167,9.96675 L109.904395,9.59625 L109.944078,9.59625 C110.116427,9.59625 110.231974,9.725625 110.231974,9.874125 L110.231974,23.272125 C110.231974,23.440125 110.096974,23.550375 109.904395,23.550375" id="Fill-9" fill="#F1B628" sketch:type="MSShapeGroup"></path>
                <path d="M117.849164,23.7915 C115.018833,23.7915 113.073977,23.21625 113.073977,20.431875 L113.073977,14.49375 C113.073977,14.198625 113.170461,14.01225 113.478588,13.974375 L116.193372,13.5855 C116.231499,13.5675 116.289078,13.5675 116.327205,13.5675 C116.539625,13.5675 116.6933,13.65975 116.6933,13.93725 L116.6933,20.544375 C116.6933,21.1755 116.924784,21.58275 117.849164,21.58275 C118.772378,21.58275 119.003862,21.1755 119.003862,20.544375 L118.98402,14.512875 C118.98402,14.2155 119.080893,14.031375 119.407695,13.974375 L122.122089,13.5855 L122.237637,13.5855 C122.44928,13.5855 122.622795,13.6785 122.622795,13.93725 L122.622795,20.431875 C122.622795,23.21625 120.679107,23.7915 117.849164,23.7915" id="Fill-10" fill="#F1B628" sketch:type="MSShapeGroup"></path>
                <path d="M129.829539,23.7915 C128.250778,23.7915 126.884438,23.58675 126.075605,23.34675 C124.978487,23.012625 124.920519,22.585875 124.920519,21.67575 L124.920519,10.523625 C124.920519,10.22625 125.016614,10.041 125.324352,9.9855 L128.039135,9.59625 C128.077262,9.59625 128.116167,9.5775 128.154683,9.5775 C128.366715,9.5775 128.539841,9.6885 128.539841,9.948 C128.539841,9.948 128.542176,13.183125 128.542176,13.857375 C128.918386,13.7565 129.738501,13.566375 130.599467,13.566375 C133.430187,13.566375 134.796527,14.717625 134.796527,18.4665 C134.796527,21.973875 134.046441,23.7915 129.829539,23.7915 M129.733833,15.849 C129.155706,15.849 128.539841,15.998625 128.539841,15.998625 L128.539841,21.453 C128.539841,21.453 129.040159,21.52725 129.483285,21.52725 C130.773761,21.52725 131.119236,21.249375 131.119236,18.54 C131.119236,16.015875 130.830951,15.849 129.733833,15.849" id="Fill-11" fill="#F1B628" sketch:type="MSShapeGroup"></path>
            </g>
        </g>
    </g>
</svg>