<svg width="96" height="20" viewBox="0 0 96 20" xmlns="http://www.w3.org/2000/svg"><g fill="none" fill-rule="evenodd"><path d="M7.237 16.756c-2.331 0-4.14-.54-4.544-.65-.174-.057-.251-.187-.251-.317v-.093l.232-.908c.019-.111.193-.185.309-.185h.038c.404.074 2.368.594 4.409.594 1.693 0 3.447-.54 3.447-2.452 0-1.835-1.6-2.078-3.697-2.337-2.196-.298-4.91-.778-4.91-3.896 0-3.117 2.618-3.88 5.332-3.88 2.253 0 4.024.52 4.447.65.193.037.27.168.27.315v.075l-.23.927c-.02.094-.194.186-.29.186h-.039c-.519-.112-2.155-.575-4.158-.575-1.578 0-3.426.334-3.426 2.154 0 1.798 1.867 2.134 3.694 2.375 2.273.296 4.969.5 4.969 3.878 0 3.265-2.811 4.139-5.602 4.139m12.103.035c-4.082 0-4.58-2.3-4.58-5.102 0-2.822.498-5.122 4.58-5.122 4.1 0 4.582 2.3 4.582 5.122 0 2.802-.481 5.102-4.582 5.102m0-8.907c-2.6 0-2.714 1.466-2.714 3.805 0 2.32.115 3.786 2.714 3.786 2.618 0 2.734-1.467 2.734-3.786 0-2.339-.116-3.805-2.734-3.805m14.106 8.165c0 .15-.115.204-.191.242-.482.223-1.849.482-3.043.482-3.638 0-4.601-1.632-4.601-5.104 0-3.451.963-5.101 4.6-5.101 1.195 0 2.562.277 3.044.482.076.036.191.092.191.26 0 .018 0 .056-.018.093l-.154.723c-.02.147-.116.203-.231.203h-.116c-.424-.111-1.52-.426-2.522-.426-2.253 0-2.946.928-2.946 3.766 0 2.84.693 3.768 2.946 3.768 1.001 0 2.098-.26 2.522-.372.037-.018.078-.018.116-.018.115 0 .192.056.23.205l.155.685a.24.24 0 0 1 .018.112M36.89 5.25h-1.137c-.191 0-.326-.13-.326-.316V2.912c0-.204.135-.316.326-.316h1.137c.193 0 .309.112.309.316v2.022c0 .204-.116.316-.31.316m.04 11.3h-1.213c-.174 0-.29-.11-.29-.278v-9.15c0-.166.116-.277.29-.277h1.212c.174 0 .29.111.29.278v9.15c0 .167-.116.277-.29.277m9.342-.019c-.577.13-1.501.26-2.541.26-1.751 0-4.466-.092-4.466-3.099 0-2.45 1.463-2.597 3.272-2.894l3.62-.575v-.817c0-.575-.038-1.02-.674-1.26-.347-.132-.885-.187-1.694-.187-1.443 0-2.753.352-3.484.52-.04.018-.097.018-.136.018-.076 0-.172-.037-.192-.149l-.192-.909c-.02-.018-.02-.037-.02-.056 0-.13.135-.204.212-.222.597-.204 2.252-.593 4.063-.593 1.386 0 2.27.184 2.849.482 1.001.538 1.04 1.447 1.04 2.394v5.177c0 1.316-.328 1.614-1.657 1.91m-.114-5.009l-3.274.519c-.885.13-1.77.203-1.77 1.596 0 1.762 1.482 1.875 2.656 1.875.828 0 1.675-.094 2.388-.315v-3.675m7.876 4.768c0 .15-.116.205-.154.205-.155.074-.693.24-1.464.24-1.29 0-2.098-.649-2.098-2.04V3.134c0-.167.097-.242.27-.26l1.251-.279h.058c.153 0 .211.113.211.261V14.62c0 .669.463.78.848.78.269 0 .559-.057.674-.074.038 0 .057-.018.076-.018.077 0 .135.035.155.166l.173.761v.056" fill="#FFF"/><path d="M68.904 16.55h-3.253c-.192 0-.327-.11-.327-.278v-5.4h-5.372v5.4c0 .168-.116.278-.307.278h-3.254c-.193 0-.326-.11-.326-.278V3.245c0-.167.133-.26.326-.278l3.254-.37h.039c.152 0 .268.129.268.277v5.308h5.372V3.245c0-.167.154-.26.327-.278l3.253-.37h.04c.172 0 .288.129.288.277v13.398c0 .168-.135.278-.328.278m7.946.241c-2.831 0-4.776-.575-4.776-3.36V7.495c0-.295.096-.482.405-.52l2.714-.389c.038-.017.096-.017.134-.017.213 0 .366.092.366.37v6.606c0 .631.232 1.039 1.156 1.039.923 0 1.155-.408 1.155-1.039l-.02-6.031c0-.297.097-.482.424-.539l2.714-.389h.116c.211 0 .385.093.385.352v6.495c0 2.784-1.944 3.36-4.774 3.36m11.981-.002c-1.58 0-2.946-.204-3.754-.444-1.098-.334-1.155-.761-1.155-1.671V3.524c0-.298.096-.483.403-.538l2.715-.39c.038 0 .077-.018.116-.018.212 0 .385.11.385.37l.002 3.91c.376-.101 1.197-.292 2.057-.292 2.831 0 4.198 1.152 4.198 4.9 0 3.508-.75 5.325-4.967 5.325m-.096-7.942c-.578 0-1.194.15-1.194.15v5.454s.5.074.943.074c1.29 0 1.636-.278 1.636-2.987 0-2.524-.288-2.691-1.385-2.691" fill="#F1B628"/></g></svg>